<?xml version="1.0" standalone="no"?>
<!DOCTYPE svg PUBLIC "-//W3C//DTD SVG 20010904//EN"
 "http://www.w3.org/TR/2001/REC-SVG-20010904/DTD/svg10.dtd">
<svg version="1.0" xmlns="http://www.w3.org/2000/svg"
 width="224.000000pt" height="225.000000pt" viewBox="0 0 224.000000 225.000000"
 preserveAspectRatio="xMidYMid meet">

<g transform="translate(0.000000,225.000000) scale(0.100000,-0.100000)"
fill="#000000" stroke="none">
<path d="M1256 2215 c-3 -9 0 -15 9 -15 16 0 20 16 6 24 -5 3 -11 -1 -15 -9z"/>
<path d="M1022 2178 c-19 -19 -14 -63 8 -83 17 -15 24 -16 45 -7 14 6 25 16
25 22 0 13 -13 13 -27 -1 -6 -6 -16 -8 -22 -5 -20 13 -11 26 18 26 37 0 44 11
25 38 -17 24 -53 29 -72 10z m51 -23 c1 -5 -6 -11 -15 -13 -11 -2 -18 3 -18
13 0 17 30 18 33 0z"/>
<path d="M1150 2138 c0 -26 5 -48 10 -48 6 0 10 11 10 24 0 35 10 56 26 56 8
0 14 4 14 9 0 5 -13 9 -30 9 -29 -1 -30 -3 -30 -50z"/>
<path d="M1250 2172 c0 -9 -3 -34 -6 -54 -5 -30 -3 -38 9 -38 20 0 29 97 10
105 -7 2 -13 -3 -13 -13z"/>
<path d="M939 2143 l0 -38 -16 33 c-22 43 -41 41 -45 -5 l-3 -38 -14 28 c-8
15 -20 27 -28 27 -18 0 -17 -4 12 -50 31 -50 55 -53 55 -7 1 30 2 31 15 13 8
-10 16 -24 18 -30 8 -21 24 9 31 57 4 38 3 47 -9 47 -11 0 -15 -11 -16 -37z"/>
<path d="M1321 2133 c-6 -21 -11 -44 -11 -51 0 -25 23 -6 34 28 17 54 42 46
38 -12 -4 -59 13 -63 28 -7 14 51 8 69 -24 69 -13 0 -31 3 -39 6 -11 4 -19 -5
-26 -33z"/>
<path d="M723 2117 c-29 -13 -37 -38 -22 -70 22 -48 91 -37 97 16 6 47 -32 74
-75 54z m47 -32 c17 -20 5 -45 -20 -45 -23 0 -35 22 -26 45 7 19 30 19 46 0z"/>
<path d="M1460 2101 c-21 -41 -5 -81 32 -81 11 0 15 -5 12 -15 -8 -20 -23 -19
-46 2 -10 9 -21 13 -26 9 -9 -10 35 -46 58 -46 23 0 34 15 58 78 19 50 19 52
2 52 -11 0 -22 5 -25 10 -11 17 -54 11 -65 -9z m65 -11 c11 -18 -6 -50 -26
-50 -13 0 -19 7 -19 23 0 13 3 27 7 30 10 10 31 8 38 -3z"/>
<path d="M1654 2014 c-24 -37 -33 -59 -26 -66 7 -7 22 9 46 46 20 31 36 61 36
66 0 25 -23 5 -56 -46z"/>
<path d="M581 2043 c-5 -10 -13 -17 -18 -16 -12 2 -5 -15 29 -75 20 -35 34
-50 40 -44 7 7 7 16 0 28 -8 14 -6 20 11 29 26 12 33 45 17 74 -14 27 -65 28
-79 4z m60 -24 c8 -17 8 -24 -3 -35 -12 -13 -17 -12 -32 5 -20 22 -15 51 8 51
9 0 20 -10 27 -21z"/>
<path d="M935 1996 c-458 -108 -759 -522 -705 -973 27 -228 112 -397 280 -556
135 -128 278 -199 466 -232 110 -19 177 -19 295 1 289 49 525 225 654 488 166
337 107 734 -149 1003 -117 124 -249 205 -411 254 -91 28 -339 36 -430 15z
m309 -6 c363 -53 668 -338 740 -692 20 -99 20 -257 0 -355 -35 -171 -104 -302
-227 -430 -117 -122 -244 -199 -404 -245 -67 -20 -100 -23 -238 -22 -147 0
-167 3 -245 28 -342 113 -571 378 -621 718 -84 575 420 1081 995 998z"/>
<path d="M1210 1770 c-16 -16 -33 -20 -85 -20 -68 0 -94 -19 -27 -21 l37 -1
-33 -14 c-29 -13 -31 -17 -21 -35 8 -15 18 -20 35 -16 19 3 24 1 22 -12 -3
-12 -12 -15 -37 -13 -39 4 -35 -8 13 -36 35 -21 54 -19 35 4 -7 8 -7 14 1 19
5 3 10 17 10 31 0 20 -5 24 -29 24 -17 0 -33 5 -36 10 -4 6 7 10 25 10 25 0
31 4 26 15 -4 11 2 15 26 15 29 0 30 -2 24 -30 -3 -16 -9 -43 -12 -60 -4 -18
-2 -30 4 -30 5 0 13 17 16 38 11 60 16 72 33 72 10 0 13 -5 8 -17 -16 -39 -17
-54 -5 -68 20 -24 39 -18 61 20 l21 35 45 -31 c44 -31 54 -51 14 -29 -41 22
-56 -15 -20 -49 14 -13 17 -21 9 -26 -16 -10 -50 24 -50 52 0 12 -4 23 -10 23
-28 0 8 -85 40 -95 23 -7 50 10 50 32 0 8 -9 17 -20 20 -11 3 -20 12 -20 20 0
13 3 13 24 0 17 -12 26 -13 35 -4 8 8 16 6 32 -10 25 -24 17 -45 -14 -41 -18
2 -23 -3 -25 -30 -2 -22 2 -34 13 -38 12 -5 13 -9 4 -20 -26 -32 3 -24 47 11
37 30 48 35 55 24 15 -25 10 -34 -36 -58 -25 -13 -45 -28 -45 -32 0 -14 12
-11 58 16 23 13 49 22 57 19 25 -10 17 11 -28 72 -81 110 -194 195 -290 219
-15 4 -26 12 -24 19 7 20 38 18 63 -5 13 -12 26 -20 29 -17 8 8 -54 58 -71 58
-8 0 -23 -9 -34 -20z m78 -101 c-9 -27 -38 -42 -38 -20 0 27 21 60 34 55 11
-4 12 -12 4 -35z m196 -162 c-19 -15 -31 -18 -42 -10 -26 16 -26 33 2 33 13 0
28 5 31 10 5 8 11 7 21 -1 11 -9 9 -15 -12 -32z"/>
<path d="M911 1695 c-24 -14 -61 -39 -84 -57 -33 -27 -47 -31 -84 -29 -31 2
-43 -1 -39 -8 4 -6 20 -11 37 -11 32 0 37 -11 13 -30 -20 -18 -68 -99 -61
-106 3 -3 13 8 23 25 18 30 18 30 46 13 16 -9 27 -23 26 -32 -5 -22 -33 -18
-33 5 0 25 -18 26 -23 2 -8 -42 47 -64 70 -28 9 14 16 17 24 10 8 -6 14 -7 18
0 4 5 -7 18 -24 28 -31 18 -36 43 -12 51 7 2 16 -5 19 -17 5 -22 23 -29 23
-10 0 22 -22 49 -40 49 -10 0 -25 -9 -33 -21 -10 -14 -17 -17 -22 -9 -4 7 5
26 21 43 16 18 30 34 32 37 2 2 21 -17 43 -43 23 -26 45 -44 51 -41 5 4 -9 26
-33 50 -49 49 -46 57 27 100 48 28 71 25 54 -7 -6 -11 -15 -17 -20 -14 -5 3
-19 -4 -30 -15 -19 -19 -20 -24 -7 -43 14 -21 67 -37 67 -20 0 5 -10 9 -22 10
-24 2 -39 20 -31 40 6 15 33 18 33 3 0 -5 5 -10 11 -10 5 0 8 4 5 8 -2 4 -1
14 3 21 6 10 13 5 27 -18 17 -28 34 -41 34 -24 0 3 -12 26 -26 50 -14 25 -23
51 -20 59 8 21 -13 17 -63 -11z"/>
<path d="M1061 1439 c-34 -78 -60 -144 -58 -146 3 -2 60 -2 129 -1 l125 3 -67
142 -67 143 -62 -141z"/>
<path d="M1031 1267 c2 -2 25 -18 50 -35 l47 -31 48 34 49 35 -99 0 c-55 0
-97 -2 -95 -3z"/>
<path d="M1237 1211 c-15 -34 -27 -64 -27 -66 0 -2 38 -30 85 -64 47 -33 85
-57 84 -53 0 4 -26 61 -57 127 l-58 119 -27 -63z"/>
<path d="M945 1174 c-21 -49 -44 -104 -52 -123 l-14 -34 43 33 c24 17 60 43
81 57 20 14 37 31 37 37 -1 6 -13 35 -29 65 l-28 53 -38 -88z"/>
<path d="M1036 1208 c15 -29 27 -54 28 -55 0 -1 11 7 23 17 l23 18 -50 36 -51
36 27 -52z"/>
<path d="M1188 1222 c-43 -31 -45 -37 -18 -52 17 -9 22 -5 40 31 12 22 20 42
18 44 -2 2 -20 -9 -40 -23z"/>
<path d="M1091 1151 l-23 -18 29 -57 29 -57 28 58 28 57 -22 18 c-28 22 -39
22 -69 -1z"/>
<path d="M963 1057 c-45 -34 -82 -65 -83 -69 0 -8 208 -358 225 -376 9 -10 12
33 13 183 l2 195 -32 65 c-18 36 -35 65 -38 64 -3 0 -42 -28 -87 -62z"/>
<path d="M1161 1053 l-32 -68 3 -198 3 -197 73 114 c39 64 97 154 127 200 l55
85 -92 66 c-50 36 -94 65 -98 65 -3 0 -21 -30 -39 -67z"/>
<path d="M725 755 c-29 -28 -30 -36 -10 -75 12 -22 23 -30 43 -30 l27 1 -28
23 c-35 29 -33 56 7 75 37 17 61 4 61 -33 0 -34 19 -34 23 0 8 61 -75 88 -123
39z"/>
<path d="M1434 725 c-3 -14 -3 -33 2 -42 6 -14 9 -11 12 15 4 43 26 36 26 -9
1 -29 4 -34 26 -34 19 0 26 6 28 25 2 14 8 30 13 36 7 8 0 15 -22 23 -53 18
-78 14 -85 -14z m81 -25 c0 -7 -6 -15 -12 -17 -8 -3 -13 4 -13 17 0 13 5 20
13 18 6 -3 12 -11 12 -18z"/>
<path d="M1376 665 c-3 -9 0 -15 9 -15 16 0 20 16 6 24 -5 3 -11 -1 -15 -9z"/>
<path d="M820 643 c-58 -21 -47 -103 15 -103 51 0 71 54 35 90 -21 21 -25 22
-50 13z m45 -33 c10 -16 -14 -50 -35 -50 -22 0 -31 19 -18 43 9 18 43 23 53 7z"/>
<path d="M1406 641 c-9 -13 74 -75 85 -64 7 7 -3 21 -29 42 -43 33 -48 36 -56
22z"/>
<path d="M1336 632 c-3 -5 1 -15 9 -22 20 -17 19 -27 -5 -33 -13 -3 -20 -13
-20 -29 0 -29 9 -42 38 -57 22 -11 27 -10 55 19 l31 31 -51 51 c-28 27 -53 46
-57 40z m52 -74 c19 -19 15 -48 -8 -48 -21 0 -45 34 -35 50 8 14 28 13 43 -2z"/>
<path d="M915 560 c-6 -10 -4 -11 24 -14 8 0 16 -7 19 -14 3 -10 -6 -12 -34
-10 -34 3 -39 0 -42 -20 -2 -14 3 -24 15 -29 10 -3 25 -12 34 -19 13 -12 18
-8 38 33 l23 47 -22 18 c-25 20 -46 23 -55 8z m25 -66 c0 -9 -7 -14 -17 -12
-25 5 -28 28 -4 28 12 0 21 -6 21 -16z"/>
<path d="M1020 494 c-21 -61 -21 -90 -1 -68 10 11 41 102 41 121 0 33 -20 7
-40 -53z"/>
<path d="M1158 544 c-9 -9 -11 -106 -2 -128 12 -32 24 -15 23 32 -2 60 -12
106 -21 96z"/>
<path d="M1245 520 c-3 -5 -15 -10 -25 -10 -17 0 -17 -2 -2 -50 15 -47 41 -65
34 -24 -14 79 8 98 37 32 14 -32 21 -39 26 -27 10 26 -21 89 -44 89 -11 0 -23
-4 -26 -10z"/>
<path d="M1706 1959 c-34 -48 -22 -76 12 -29 22 29 46 38 56 22 3 -5 -6 -25
-19 -45 -29 -41 -16 -62 15 -25 38 45 38 88 -1 88 -10 0 -18 5 -16 11 6 28
-20 15 -47 -22z"/>
<path d="M468 1970 c-7 -11 -18 -20 -25 -20 -6 0 -19 -10 -27 -22 -9 -12 -16
-18 -16 -13 0 5 -5 4 -11 -2 -8 -8 -3 -22 22 -52 20 -26 36 -38 42 -32 6 6 2
20 -12 37 -11 15 -21 33 -21 40 0 24 28 15 51 -17 14 -20 25 -27 32 -20 6 6 3
18 -12 37 -11 15 -21 33 -21 40 0 24 29 15 52 -16 14 -19 25 -27 31 -21 12 12
-38 81 -58 81 -8 0 -20 -9 -27 -20z"/>
<path d="M1817 1872 c-18 -20 -23 -72 -8 -72 5 0 17 -7 25 -16 14 -14 21 -11
66 27 27 23 50 45 50 49 0 17 -15 19 -31 4 -16 -14 -18 -14 -29 5 -13 26 -51
27 -73 3z m62 -27 c4 -22 -25 -46 -45 -38 -19 7 -18 22 3 45 19 22 37 19 42
-7z"/>
<path d="M270 1843 l-31 -38 52 -48 53 -47 38 37 c21 20 38 41 38 45 0 16 -23
7 -42 -17 -37 -48 -73 -24 -37 25 30 39 14 54 -17 15 -18 -23 -26 -27 -36 -17
-9 9 -7 18 10 42 24 32 27 40 13 40 -5 0 -24 -17 -41 -37z"/>
<path d="M1976 1812 c-3 -6 -1 -14 5 -17 15 -10 25 3 12 16 -7 7 -13 7 -17 1z"/>
<path d="M1911 1760 c-48 -41 -30 -59 20 -19 21 17 39 35 39 40 0 17 -25 8
-59 -21z"/>
<path d="M2000 1700 c18 -13 22 -22 14 -30 -7 -7 -16 -5 -29 10 -22 24 -38 25
-55 5 -11 -13 -9 -20 9 -38 11 -13 21 -29 21 -35 0 -7 17 -1 40 14 22 15 40
33 40 41 0 27 -21 53 -43 53 -22 0 -22 -1 3 -20z m-21 -34 c8 -10 9 -16 1 -21
-13 -8 -30 3 -30 21 0 18 14 18 29 0z"/>
<path d="M199 1624 c-16 -20 0 -49 27 -49 35 0 28 64 -7 65 -4 0 -12 -7 -20
-16z"/>
<path d="M2077 1533 c-13 -13 -7 -51 9 -57 20 -8 44 11 44 34 0 23 -37 39 -53
23z"/>
<path d="M75 1450 c-3 -5 16 -16 42 -23 l48 -15 -57 -16 c-32 -10 -58 -23 -58
-30 0 -7 31 -22 70 -33 55 -16 70 -18 70 -7 0 7 -18 18 -40 24 -22 6 -40 13
-40 15 0 2 19 9 43 16 42 11 67 25 67 38 0 6 -116 41 -134 41 -2 0 -7 -4 -11
-10z"/>
<path d="M2106 1354 c-33 -32 -10 -76 39 -76 49 0 75 53 40 82 -20 17 -32 5
-15 -15 14 -17 6 -50 -10 -40 -5 3 -10 19 -10 36 0 33 -19 39 -44 13z m34 -34
c0 -21 -15 -27 -25 -10 -7 12 2 30 16 30 5 0 9 -9 9 -20z"/>
<path d="M43 1278 c-6 -7 -10 -27 -10 -45 0 -34 15 -43 70 -43 39 0 33 17 -10
27 -24 6 -39 15 -41 27 -3 16 2 18 42 15 30 -3 46 0 46 7 0 23 -81 32 -97 12z"/>
<path d="M2070 1221 c0 -25 47 -48 64 -31 5 5 27 10 49 10 27 0 37 4 34 13 -2
7 -19 11 -43 10 -22 -2 -41 2 -46 10 -6 9 -10 9 -17 -2 -8 -12 -12 -12 -25 -2
-14 12 -16 10 -16 -8z"/>
<path d="M43 1143 c-38 -7 -26 -23 18 -23 32 0 42 -4 46 -20 8 -32 21 -23 21
15 0 33 -2 35 -31 34 -18 -1 -42 -4 -54 -6z"/>
<path d="M2070 1126 c0 -9 7 -16 16 -16 9 0 14 5 12 12 -6 18 -28 21 -28 4z"/>
<path d="M2110 1125 c0 -12 13 -15 55 -15 42 0 55 3 55 15 0 12 -13 15 -55 15
-42 0 -55 -3 -55 -15z"/>
<path d="M116 1051 c-4 -6 -18 -11 -31 -11 -36 0 -55 -10 -55 -31 0 -10 5 -19
10 -19 6 0 10 5 10 11 0 8 15 10 45 7 25 -3 45 -2 45 2 0 5 8 10 18 13 15 3
15 5 -3 12 -11 5 -23 13 -26 18 -4 5 -9 5 -13 -2z"/>
<path d="M2190 1025 l0 -36 -60 7 c-50 5 -60 4 -60 -8 0 -12 17 -17 68 -21 37
-3 68 -4 68 -4 1 1 5 23 8 50 6 39 5 47 -8 47 -12 0 -16 -10 -16 -35z"/>
<path d="M83 953 c-31 -6 -46 -28 -37 -55 4 -13 8 -26 9 -30 1 -16 16 -18 59
-7 57 14 62 34 6 26 -26 -3 -43 -1 -51 9 -11 14 -1 21 54 38 9 3 17 10 17 16
0 10 -16 11 -57 3z"/>
<path d="M2073 843 c-14 -45 -4 -68 32 -77 37 -9 68 10 62 40 -5 27 5 31 23 9
10 -13 9 -19 -5 -35 -20 -23 -13 -39 9 -21 20 16 29 60 16 76 -6 7 -30 18 -54
24 -24 6 -50 13 -57 16 -9 3 -18 -7 -26 -32z m72 -28 c0 -31 -49 -28 -53 3 -3
20 0 23 25 20 20 -2 28 -8 28 -23z"/>
<path d="M113 808 c-18 -6 -33 -17 -33 -24 0 -17 10 -17 47 -3 22 8 30 7 40
-7 17 -23 26 -13 17 20 -7 28 -19 30 -71 14z"/>
<path d="M230 735 c0 -8 5 -15 10 -15 6 0 10 7 10 15 0 8 -4 15 -10 15 -5 0
-10 -7 -10 -15z"/>
<path d="M2043 732 c-11 -7 -33 -54 -33 -72 0 -14 82 -42 93 -31 6 6 -3 15
-27 25 -34 14 -47 38 -27 50 5 3 25 -1 45 -9 32 -14 36 -14 36 0 0 8 -2 15 -4
15 -2 0 -19 6 -38 14 -19 8 -39 11 -45 8z"/>
<path d="M146 709 c-25 -13 -35 -24 -29 -30 12 -12 105 30 97 43 -8 12 -25 9
-68 -13z"/>
<path d="M190 639 c-44 -27 -43 -26 -35 -38 4 -8 13 -6 28 4 28 19 67 20 67 0
0 -8 -15 -22 -32 -31 -42 -21 -41 -21 -33 -34 8 -12 81 26 89 47 3 7 -3 22
-14 33 -11 11 -20 23 -19 27 1 15 -17 12 -51 -8z"/>
<path d="M1936 633 c-11 -11 -6 -23 9 -23 8 0 15 4 15 9 0 13 -16 22 -24 14z"/>
<path d="M1970 602 c0 -16 81 -55 92 -44 7 7 -2 17 -30 31 -44 22 -62 26 -62
13z"/>
<path d="M1896 571 c-10 -15 109 -99 122 -86 8 8 -39 50 -87 78 -17 10 -32 13
-35 8z"/>
<path d="M262 520 c-28 -26 -28 -54 -2 -73 18 -13 19 -15 5 -21 -22 -8 -35 1
-35 24 0 23 -16 35 -25 19 -11 -17 16 -59 41 -65 30 -8 131 66 112 81 -7 6
-18 19 -24 30 -15 28 -45 30 -72 5z m64 -21 c3 -6 -3 -20 -14 -32 -17 -17 -24
-18 -36 -8 -12 10 -13 18 -5 32 11 21 44 26 55 8z"/>
<path d="M1865 459 c-7 -20 -8 -20 -26 -3 -14 12 -23 14 -30 7 -7 -7 7 -25 45
-58 l56 -47 25 23 c13 13 25 33 25 45 0 47 -82 76 -95 33z m60 -19 c13 -15 15
-24 8 -31 -22 -22 -74 15 -57 42 9 15 30 10 49 -11z"/>
<path d="M435 353 c-31 -38 -43 -59 -34 -62 7 -2 26 11 42 30 l29 34 -4 -59
c-2 -37 1 -60 8 -63 10 -3 94 97 94 112 0 17 -29 -1 -54 -33 l-28 -37 7 61 c4
39 3 64 -3 68 -6 4 -32 -19 -57 -51z"/>
<path d="M1772 374 c-12 -8 -22 -25 -22 -37 0 -22 1 -22 20 3 23 30 38 19 20
-14 -7 -14 -10 -32 -7 -40 9 -23 48 -20 54 4 3 11 12 20 19 20 22 0 17 14 -19
48 -38 37 -36 37 -65 16z m58 -58 c0 -16 -18 -31 -27 -22 -8 8 5 36 17 36 5 0
10 -6 10 -14z"/>
<path d="M1664 285 c-4 -8 -12 -15 -20 -15 -8 0 -14 -5 -14 -10 0 -18 45 -80
58 -80 17 0 15 10 -7 44 -20 29 -18 56 3 56 6 0 20 -13 29 -30 10 -16 25 -30
33 -30 19 0 18 4 -8 45 -24 37 -64 48 -74 20z"/>
<path d="M1519 256 l-47 -21 30 -66 30 -67 49 22 c27 11 49 27 49 34 0 15 -9
15 -40 -3 -32 -19 -47 -19 -54 0 -3 10 6 21 31 33 22 12 32 22 25 26 -7 4 -21
2 -33 -4 -22 -12 -49 -7 -49 8 0 5 14 15 30 22 17 7 33 16 35 21 11 17 -12 15
-56 -5z"/>
<path d="M575 260 c3 -5 15 -10 26 -10 10 0 19 -7 19 -15 0 -11 -5 -12 -25 -5
-60 23 -74 -30 -17 -62 l32 -18 23 46 c21 45 22 46 3 60 -23 16 -70 19 -61 4z
m24 -49 c9 -6 10 -10 2 -16 -16 -9 -44 2 -36 15 8 12 16 12 34 1z"/>
<path d="M698 226 c-10 -7 -15 -15 -12 -18 3 -3 -1 -22 -9 -41 -11 -25 -12
-38 -4 -46 14 -14 37 -14 37 -1 0 6 -4 10 -9 10 -6 0 -6 12 0 30 6 17 17 30
24 30 7 0 12 10 11 25 -1 28 -12 31 -38 11z"/>
<path d="M770 166 c-23 -60 -23 -74 0 -86 12 -6 24 -9 27 -6 4 3 12 1 20 -6
17 -13 17 -14 36 45 13 38 13 47 2 47 -7 0 -19 -16 -25 -35 -8 -24 -18 -35
-31 -35 -21 0 -24 16 -9 56 7 18 7 31 1 37 -7 7 -14 1 -21 -17z"/>
<path d="M901 102 c-5 -25 -7 -50 -5 -54 11 -17 22 -6 28 27 5 26 14 39 33 46
30 11 29 14 -14 22 -31 6 -32 5 -42 -41z"/>
<path d="M1236 125 c-9 -24 4 -45 29 -45 29 0 38 13 30 40 -8 24 -50 27 -59 5z"/>
<path d="M999 104 c-20 -54 20 -97 69 -74 20 9 23 13 12 20 -9 5 -19 5 -27 -1
-13 -11 -33 -4 -33 12 0 5 16 9 35 9 27 0 35 4 35 18 0 26 -20 42 -52 42 -22
0 -31 -6 -39 -26z m66 -4 c4 -6 -5 -10 -20 -10 -15 0 -24 4 -20 10 3 6 12 10
20 10 8 0 17 -4 20 -10z"/>
</g>
</svg>
