<?xml version="1.0" encoding="utf-8"?>
<!-- Generator: Adobe Illustrator 23.0.6, SVG Export Plug-In . SVG Version: 6.00 Build 0)  -->
<svg version="1.1" id="Layer_1" xmlns="http://www.w3.org/2000/svg" xmlns:xlink="http://www.w3.org/1999/xlink" x="0px" y="0px"
	 viewBox="0 0 1920 1080" style="enable-background:new 0 0 1920 1080;" xml:space="preserve">
<style type="text/css">
	.st0{fill:#000052;}
	.st1{fill:#646464;}
	.st2{fill:#FDC018;}
	.st3{fill:#FECF03;}
	.st4{fill:#FFFFFF;}
	.st5{fill:#F95428;}
</style>
<g>
	<g>
		<path class="st0" d="M1201.22,523.35c-1,11.04-4.91,19.66-11.74,25.85c-6.82,6.19-15.9,9.28-27.23,9.28
			c-7.92,0-14.89-1.96-20.92-5.87s-10.68-9.47-13.96-16.67c-3.28-7.2-4.98-15.57-5.12-25.1v-9.67c0-9.76,1.66-18.37,4.98-25.81
			c3.32-7.44,8.09-13.18,14.3-17.21c6.21-4.03,13.39-6.04,21.53-6.04c10.96,0,19.79,3.09,26.48,9.28
			c6.69,6.19,10.58,14.94,11.67,26.27h-17.2c-0.82-7.44-2.9-12.81-6.24-16.1c-3.34-3.29-8.25-4.94-14.71-4.94
			c-7.51,0-13.27,2.86-17.3,8.58c-4.03,5.72-6.08,14.1-6.18,25.16v9.18c0,11.2,1.92,19.74,5.77,25.62
			c3.84,5.88,9.47,8.82,16.89,8.82c6.78,0,11.88-1.59,15.29-4.76c3.41-3.18,5.57-8.46,6.48-15.86H1201.22z"/>
		<path class="st0" d="M1259.16,557.06c-0.73-1.47-1.37-3.86-1.91-7.18c-5.28,5.74-11.74,8.6-19.38,8.6
			c-7.42,0-13.47-2.2-18.15-6.61c-4.69-4.41-7.03-9.86-7.03-16.35c0-8.2,2.92-14.49,8.77-18.88c5.84-4.38,14.21-6.58,25.08-6.58
			h10.17v-5.05c0-3.98-1.07-7.17-3.21-9.56c-2.14-2.39-5.39-3.59-9.76-3.59c-3.78,0-6.87,0.98-9.28,2.95
			c-2.41,1.97-3.62,4.47-3.62,7.5h-16.58c0-4.22,1.34-8.16,4.03-11.84c2.68-3.67,6.33-6.55,10.95-8.64
			c4.62-2.08,9.77-3.13,15.46-3.13c8.64,0,15.54,2.26,20.68,6.79c5.14,4.53,7.78,10.89,7.92,19.09v34.7c0,6.92,0.93,12.44,2.8,16.57
			v1.21H1259.16z M1240.94,544.61c3.28,0,6.36-0.83,9.25-2.49c2.89-1.66,5.06-3.89,6.52-6.68v-14.5h-8.94
			c-6.14,0-10.76,1.11-13.85,3.34c-3.09,2.23-4.64,5.38-4.64,9.46c0,3.32,1.06,5.96,3.17,7.93
			C1234.56,543.63,1237.39,544.61,1240.94,544.61z"/>
		<path class="st0" d="M1329.31,495.91c-2.18-0.38-4.44-0.57-6.76-0.57c-7.6,0-12.72,3.03-15.35,9.1v52.62h-16.58v-76.93h15.83
			l0.41,8.6c4-6.68,9.55-10.03,16.65-10.03c2.37,0,4.32,0.33,5.87,1L1329.31,495.91z"/>
		<path class="st0" d="M1371.01,558.48c-10.51,0-19.03-3.45-25.56-10.35c-6.53-6.9-9.79-16.08-9.79-27.55v-2.13
			c0-7.68,1.42-14.54,4.27-20.58c2.84-6.04,6.83-10.75,11.98-14.11c5.14-3.37,10.87-5.05,17.2-5.05c10.05,0,17.82,3.34,23.3,10.03
			s8.22,16.14,8.22,28.37v6.97h-48.25c0.5,6.35,2.54,11.38,6.11,15.07c3.57,3.7,8.06,5.55,13.48,5.55c7.6,0,13.79-3.2,18.56-9.6
			l8.94,8.89c-2.96,4.6-6.9,8.17-11.84,10.7C1382.69,557.21,1377.15,558.48,1371.01,558.48z M1369.03,492.57
			c-4.55,0-8.22,1.66-11.02,4.98c-2.8,3.32-4.58,7.94-5.36,13.86h31.6v-1.28c-0.37-5.78-1.84-10.16-4.44-13.12
			C1377.22,494.05,1373.62,492.57,1369.03,492.57z"/>
	</g>
	<g>
		<path class="st1" d="M1236.37,613.41l1.54,8.03l1.88-7.68l10.78-38.15h3.79l10.65,38.15l1.84,7.75l1.64-8.11l8.97-37.79h4.3
			l-12.73,51.76H1265l-11.26-40.49l-1.26-5.12l-1.23,5.12l-11.53,40.49h-4.03l-12.69-51.76h4.3L1236.37,613.41z"/>
		<path class="st1" d="M1285.57,607.58c0-3.7,0.69-7.03,2.06-9.99c1.38-2.96,3.32-5.27,5.83-6.92s5.36-2.47,8.55-2.47
			c4.91,0,8.89,1.79,11.94,5.39c3.05,3.59,4.57,8.35,4.57,14.27v0.89c0,3.72-0.69,7.07-2.06,10.04c-1.38,2.97-3.32,5.27-5.82,6.88
			c-2.5,1.61-5.36,2.42-8.56,2.42c-4.89,0-8.87-1.79-11.93-5.39s-4.59-8.35-4.59-14.27V607.58z M1289.67,608.75
			c0,4.6,1.14,8.37,3.43,11.32c2.29,2.95,5.28,4.43,8.99,4.43c3.68,0,6.67-1.48,8.96-4.43c2.29-2.95,3.43-6.84,3.43-11.68v-0.82
			c0-2.94-0.52-5.63-1.57-8.07c-1.05-2.44-2.51-4.33-4.4-5.67s-4.05-2.01-6.48-2.01c-3.64,0-6.61,1.49-8.91,4.46
			s-3.45,6.87-3.45,11.68V608.75z"/>
		<path class="st1" d="M1344.02,592.54c-0.87-0.17-1.79-0.25-2.76-0.25c-2.55,0-4.7,0.74-6.47,2.22s-3.02,3.63-3.77,6.45v26.41
			h-4.06v-38.47h3.99l0.07,6.11c2.16-4.55,5.63-6.83,10.41-6.83c1.14,0,2.04,0.15,2.7,0.46L1344.02,592.54z"/>
		<path class="st1" d="M1355.04,627.38h-4.09v-54.61h4.09V627.38z"/>
		<path class="st1" d="M1364.49,607.79c0-5.97,1.28-10.73,3.84-14.27c2.56-3.54,6.03-5.31,10.42-5.31c4.98,0,8.78,2.05,11.4,6.15
			v-21.58h4.06v54.61h-3.82l-0.17-5.12c-2.62,3.89-6.46,5.83-11.53,5.83c-4.25,0-7.68-1.78-10.29-5.35
			c-2.6-3.57-3.91-8.38-3.91-14.45V607.79z M1368.62,608.54c0,4.91,0.94,8.78,2.83,11.61s4.55,4.25,7.98,4.25
			c5.03,0,8.6-2.31,10.71-6.93V599.4c-2.12-5-5.66-7.5-10.65-7.5c-3.43,0-6.11,1.4-8.02,4.21
			C1369.58,598.92,1368.62,603.06,1368.62,608.54z"/>
	</g>
	<g>
		<path class="st2" d="M891.55,493.46l0.38,6.36c4.11-4.99,9.72-7.49,16.86-7.49c7.82,0,13.16,3.12,16.05,9.34
			c4.25-6.23,10.23-9.34,17.94-9.34c6.45,0,11.25,1.86,14.4,5.57c3.15,3.72,4.76,9.19,4.83,16.44v40.02h-13.13v-39.63
			c0-3.86-0.81-6.7-2.43-8.5s-4.3-2.7-8.05-2.7c-2.99,0-5.43,0.84-7.32,2.5c-1.89,1.67-3.21,3.86-3.97,6.56l0.05,41.77h-13.13
			v-40.08c-0.18-7.17-3.69-10.75-10.54-10.75c-5.26,0-8.99,2.23-11.18,6.7v44.13h-13.13v-60.9H891.55z"/>
		<path class="st2" d="M975.51,477.64c0-2.1,0.64-3.85,1.92-5.23c1.28-1.39,3.11-2.08,5.48-2.08s4.21,0.69,5.51,2.08
			c1.3,1.39,1.95,3.13,1.95,5.23c0,2.06-0.65,3.78-1.95,5.15c-1.3,1.37-3.13,2.05-5.51,2.05s-4.21-0.68-5.48-2.05
			C976.15,481.43,975.51,479.71,975.51,477.64z M989.45,554.37h-13.13v-60.9h13.13V554.37z"/>
		<path class="st2" d="M1015.92,493.46l0.38,7.04c4.32-5.44,9.99-8.16,17.02-8.16c12.17,0,18.37,7.26,18.58,21.78v40.25h-13.13
			v-39.46c0-3.86-0.8-6.73-2.4-8.58c-1.6-1.86-4.22-2.79-7.86-2.79c-5.29,0-9.24,2.5-11.83,7.49v43.34h-13.13v-60.9H1015.92z"/>
		<path class="st2" d="M1091.01,555.49c-8.32,0-15.06-2.73-20.23-8.19c-5.17-5.46-7.75-12.73-7.75-21.81v-1.69
			c0-6.08,1.13-11.51,3.38-16.3c2.25-4.78,5.41-8.51,9.48-11.17c4.07-2.66,8.61-4,13.61-4c7.96,0,14.11,2.65,18.45,7.94
			c4.34,5.29,6.51,12.78,6.51,22.46v5.52h-38.2c0.4,5.03,2.01,9.01,4.83,11.93c2.83,2.93,6.38,4.39,10.67,4.39
			c6.01,0,10.91-2.53,14.69-7.6l7.08,7.04c-2.34,3.64-5.47,6.46-9.37,8.47C1100.26,554.49,1095.88,555.49,1091.01,555.49z
			 M1089.45,503.31c-3.6,0-6.51,1.31-8.72,3.94c-2.22,2.63-3.63,6.29-4.24,10.98h25.01v-1.01c-0.29-4.58-1.46-8.04-3.51-10.39
			C1095.93,504.49,1093.08,503.31,1089.45,503.31z"/>
	</g>
	<g>
		<path class="st0" d="M679.35,641.4c-79.05,0-143.37-64.31-143.37-143.37v-3.85h286.73v3.85
			C822.72,577.08,758.4,641.4,679.35,641.4z M543.73,501.88c2.05,73.04,62.1,131.83,135.62,131.83s133.58-58.79,135.62-131.83
			H543.73z"/>
	</g>
	<g>
		<path class="st0" d="M680.72,642.02l-4.45-0.71c-64.41-10.3-66.75-137.81-66.82-143.23l7.69-0.1
			c0.02,1.23,2.18,119.97,55.9,134.77V498.03h7.69V642.02z"/>
	</g>
	<g>
		<path class="st0" d="M679.55,641.31l-1.21-7.59c58.09-9.29,60.33-134.47,60.35-135.73l7.69,0.1
			C746.3,503.5,743.96,631.01,679.55,641.31z"/>
	</g>
	<g>
		<path class="st0" d="M781.2,593.18c-18.97-18.54-58.96-30.52-101.87-30.52c-42.89,0-82.87,11.97-101.85,30.5l-5.37-5.5
			c20.66-20.16,61.74-32.69,107.22-32.69c45.5,0,86.59,12.53,107.24,32.71L781.2,593.18z"/>
	</g>
	<path class="st0" d="M595.47,592.05c0,0-3.29-9.87,6.85-7.67s18.98,13.84,34.06,19.72s66.99,62.52,22.4,134.51
		c0,0-23.76-45.32-67.61-66.15s-63.96-47.88-71.63-106.72c0,0-1.74-12.88,5.85-13.71s18.27,41.66,39.38,58.38
		c21.11,16.72,52.08,22.75,52.08,22.75s4.93,0,2.88-4.52C617.68,624.12,600.41,614.25,595.47,592.05z"/>
	<path class="st0" d="M768.97,588.87c0,0,3.29-9.87-6.85-7.67s-18.98,13.84-34.06,19.72c-15.08,5.87-66.99,62.52-22.4,134.51
		c0,0,23.76-45.32,67.61-66.15s63.96-47.88,71.63-106.72c0,0,1.74-12.88-5.85-13.71s-18.27,41.66-39.38,58.38
		c-21.11,16.72-52.08,22.75-52.08,22.75s-4.93,0-2.88-4.52C746.77,620.94,764.04,611.07,768.97,588.87z"/>
	<g>
		<path class="st3" d="M812.83,476.91c0,3.08-0.12,6.12-0.34,9.14c-0.25,3.57-0.62,7.11-1.17,10.58H542.97
			c-0.55-3.48-0.92-7.01-1.17-10.58c-0.21-3.01-0.34-6.06-0.34-9.14c0-12.24,1.72-24.12,4.92-35.38c1.88-6.61,4.28-13.01,7.14-19.16
			c21.32-45.74,68.66-77.58,123.63-77.58c54.97,0,102.31,31.84,123.63,77.58c2.86,6.15,5.26,12.55,7.14,19.16
			C811.11,452.8,812.83,464.67,812.83,476.91z"/>
		<path class="st3" d="M544.21,467.95c0,0-3.11,16.08-12.61,18.09h18.09L544.21,467.95z"/>
		<path class="st3" d="M810.46,467.95c0,0,3.11,16.08,12.61,18.09h-18.09L810.46,467.95z"/>
		<path class="st3" d="M830.21,491.34c0,2.92-2.4,5.29-5.32,5.29H530.7c-2.92,0-5.29-2.37-5.29-5.29c0-2.92,2.37-5.29,5.29-5.29
			h294.2C827.81,486.05,830.21,488.42,830.21,491.34z"/>
		<path class="st0" d="M807.91,441.54H546.38c1.88-6.61,4.28-13.01,7.14-19.16h247.26C803.64,428.53,806.04,434.92,807.91,441.54z"
			/>
		<g>
			<path class="st0" d="M798.53,474.03c-18.24-17.2-67.16-28.75-121.74-28.75c-51.04,0-97.41,10.1-118.15,25.74l-1.85-2.46
				c21.23-16.01,68.33-26.35,120-26.35c55.31,0,105.08,11.89,123.85,29.59L798.53,474.03z"/>
		</g>
		
			<rect x="759.66" y="353.88" transform="matrix(0.6724 -0.7402 0.7402 0.6724 -29.2829 691.4983)" class="st3" width="13.71" height="49.89"/>
		
			<rect x="649.7" y="341.52" transform="matrix(1 -5.078595e-03 5.078595e-03 1 -1.7605 3.4307)" class="st3" width="49.89" height="13.71"/>
		
			<rect x="564.74" y="371.38" transform="matrix(0.7677 -0.6408 0.6408 0.7677 -105.3931 465.7047)" class="st3" width="49.89" height="13.71"/>
		<circle class="st0" cx="673.83" cy="425.46" r="45.76"/>
		<g>
			<circle class="st4" cx="673.83" cy="425.46" r="42.98"/>
			<g>
				<rect x="666.79" y="399.67" class="st5" width="14.08" height="51.57"/>
				<rect x="648.04" y="418.42" class="st5" width="51.57" height="14.08"/>
			</g>
		</g>
	</g>
</g>
</svg>
